<svg width="2257" height="357" viewBox="0 0 2257 357" fill="none" xmlns="http://www.w3.org/2000/svg">
<path d="M2256.5 352.1L2127.8 184.6L2256.5 17.0996H2104L1979.4 184.6L2104 352.1H2256.5Z" fill="#246CFF"/>
<path d="M1850.8 352.1L1979.5 184.6L1850.8 17.0996H2003.3L2127.9 184.6L2003.3 352.1H1850.8Z" fill="#001E40"/>
<path d="M1649.8 207.7V352.1H1580.5V102.3H1646.5V146.4H1649.4C1654.9 131.9 1664.2 120.4 1677.2 111.9C1690.2 103.3 1706 99 1724.5 99C1741.8 99 1757 102.8 1769.9 110.4C1782.8 118 1792.8 128.8 1800 142.9C1807.2 156.9 1810.7 173.6 1810.7 193V352.1H1741.4V205.4C1741.5 190.1 1737.6 178.2 1729.7 169.6C1721.8 160.9 1710.9 156.6 1697 156.6C1687.7 156.6 1679.4 158.6 1672.3 162.6C1665.3 166.6 1659.7 172.5 1655.7 180.2C1651.9 187.8 1649.9 197 1649.8 207.7Z" fill="#001E40"/>
<path d="M1469.5 352.1V102.3H1538.8V352.1H1469.5ZM1504.3 70.1C1494 70.1 1485.2 66.7 1477.8 59.9C1470.5 53 1466.9 44.7 1466.9 35C1466.9 25.5 1470.5 17.3 1477.8 10.4C1485.2 3.49999 1494 0 1504.3 0C1514.6 0 1523.4 3.49999 1530.6 10.4C1538 17.2 1541.7 25.4 1541.7 35C1541.7 44.7 1538 52.9 1530.6 59.9C1523.3 66.7 1514.6 70.1 1504.3 70.1Z" fill="#001E40"/>
<path d="M1288.8 356.8C1272.9 356.8 1258.7 354 1246.2 348.5C1233.7 342.9 1223.9 334.6 1216.6 323.6C1209.4 312.5 1205.9 298.8 1205.9 282.3C1205.9 268.4 1208.4 256.8 1213.5 247.3C1218.6 237.9 1225.5 230.3 1234.3 224.5C1243.1 218.8 1253.1 214.4 1264.2 211.5C1275.5 208.6 1287.3 206.5 1299.7 205.3C1314.2 203.8 1325.9 202.4 1334.8 201.1C1343.7 199.7 1350.1 197.6 1354.2 194.9C1358.2 192.2 1360.2 188.2 1360.2 182.9V181.9C1360.2 171.6 1356.9 163.6 1350.4 158C1344 152.4 1334.9 149.5 1323.1 149.5C1310.6 149.5 1300.7 152.3 1293.3 157.8C1285.9 163.2 1281 170.1 1278.7 178.3L1214.6 173.1C1217.8 157.9 1224.3 144.8 1233.8 133.7C1243.3 122.5 1255.6 114 1270.7 108C1285.9 101.9 1303.5 98.9004 1323.4 98.9004C1337.3 98.9004 1350.6 100.5 1363.2 103.8C1376 107.1 1387.3 112.1 1397.2 118.9C1407.2 125.7 1415 134.5 1420.8 145.2C1426.6 155.8 1429.4 168.6 1429.4 183.4V351.9H1363.7V317.3H1361.8C1357.8 325.1 1352.4 332 1345.7 338C1339 343.9 1330.9 348.5 1321.5 351.8C1312 355.2 1301.1 356.8 1288.8 356.8ZM1308.6 309C1318.8 309 1327.8 307 1335.6 303C1343.4 298.9 1349.5 293.3 1354 286.4C1358.4 279.5 1360.7 271.6 1360.7 262.8V236.3C1358.5 237.7 1355.5 239 1351.8 240.2C1348.1 241.3 1343.9 242.3 1339.3 243.3C1334.6 244.2 1330 245 1325.3 245.7C1320.6 246.4 1316.4 246.9 1312.6 247.5C1304.5 248.7 1297.4 250.6 1291.3 253.2C1285.2 255.8 1280.5 259.3 1277.2 263.8C1273.8 268.1 1272.2 273.6 1272.2 280.1C1272.2 289.5 1275.6 296.7 1282.4 301.7C1289.2 306.6 1298 309 1308.6 309Z" fill="#001E40"/>
<path d="M1179.8 297.5C1178.1 297.8 1175.6 298.3 1172.3 299C1169 299.5 1165.8 299.8 1162.5 299.8C1157.8 299.8 1153.7 299.1 1150.1 297.7C1146.6 296.3 1143.9 293.9 1142 290.4C1140 286.8 1139.1 281.8 1139.1 275.4V154.4H1186.1V102.4H1139.1V42.5H1069.8V102.4H1035.6V154.4H1069.8V284.5C1069.7 300.9 1073.1 314.4 1080 325.2C1086.9 335.9 1096.7 343.9 1109.1 348.9C1121.7 354 1136.3 356.2 1153 355.6C1162 355.3 1169.7 354.4 1175.9 352.8C1182.2 351.4 1187.1 350.1 1190.5 349.1L1179.8 297.5Z" fill="#001E40"/>
<path d="M851.3 207.7V352.1H782V102.3H848V146.4H850.9C856.4 131.9 865.7 120.4 878.7 111.9C891.7 103.3 907.5 99 926 99C943.3 99 958.5 102.8 971.4 110.4C984.3 118 994.3 128.8 1001.5 142.9C1008.7 156.9 1012.2 173.6 1012.2 193V352.1H942.9V205.4C943 190.1 939.1 178.2 931.2 169.6C923.3 160.9 912.4 156.6 898.5 156.6C889.2 156.6 880.9 158.6 873.8 162.6C866.8 166.6 861.2 172.5 857.2 180.2C853.5 187.8 851.5 197 851.3 207.7Z" fill="#001E40"/>
<path d="M671 352.1V102.3H740.3V352.1H671ZM705.8 70.1C695.5 70.1 686.7 66.7 679.3 59.9C672 53 668.4 44.7 668.4 35C668.4 25.5 672 17.3 679.3 10.4C686.7 3.49999 695.5 0 705.8 0C716.1 0 724.9 3.49999 732.1 10.4C739.5 17.2 743.2 25.4 743.2 35C743.2 44.7 739.5 52.9 732.1 59.9C724.9 66.7 716.1 70.1 705.8 70.1Z" fill="#001E40"/>
<path d="M490.3 356.8C474.4 356.8 460.2 354 447.7 348.5C435.2 342.9 425.4 334.6 418.1 323.6C410.9 312.5 407.4 298.8 407.4 282.3C407.4 268.4 409.9 256.8 415 247.3C420.1 237.9 427 230.3 435.8 224.5C444.6 218.8 454.6 214.4 465.7 211.5C477 208.6 488.8 206.5 501.2 205.3C515.7 203.8 527.4 202.4 536.3 201.1C545.2 199.7 551.6 197.6 555.7 194.9C559.7 192.2 561.7 188.2 561.7 182.9V181.9C561.7 171.6 558.4 163.6 551.9 158C545.5 152.4 536.4 149.5 524.6 149.5C512.1 149.5 502.2 152.3 494.8 157.8C487.4 163.2 482.5 170.1 480.2 178.3L416.1 173.1C419.4 157.9 425.8 144.8 435.3 133.7C444.8 122.5 457.1 114 472.2 108C487.4 101.9 504.9 98.9004 524.9 98.9004C538.8 98.9004 552.1 100.5 564.7 103.8C577.5 107.1 588.8 112.1 598.7 118.9C608.7 125.7 616.5 134.5 622.3 145.2C628.1 155.8 630.9 168.6 630.9 183.4V351.9H565.2V317.3H563.2C559.2 325.1 553.8 332 547.1 338C540.4 343.9 532.3 348.5 522.9 351.8C513.6 355.2 502.7 356.8 490.3 356.8ZM510.1 309C520.3 309 529.3 307 537.1 303C544.9 298.9 551 293.3 555.5 286.4C560 279.5 562.2 271.6 562.2 262.8V236.3C560 237.7 557 239 553.3 240.2C549.6 241.3 545.4 242.3 540.8 243.3C536.1 244.2 531.5 245 526.8 245.7C522.1 246.4 517.9 246.9 514.1 247.5C506 248.7 498.9 250.6 492.8 253.2C486.7 255.8 482 259.3 478.6 263.8C475.2 268.1 473.6 273.6 473.6 280.1C473.6 289.5 477 296.7 483.8 301.7C490.7 306.6 499.5 309 510.1 309Z" fill="#001E40"/>
<path d="M0 17H100.5L185.8 224.9H189.7L275 17H375.5V352.9H296.5V146.6H293.7L213 350.7H162.5L81.8 145.4H79V352.9H0V17Z" fill="#001E40"/>
<path d="M2256.7 351.9L2128 184.4L2256.7 17H2104.2L1979.6 184.5L2104.2 352H2256.7V351.9Z" fill="#246CFF"/>
<path d="M1851 351.9L1979.7 184.4L1851 17H2003.5L2128.1 184.5L2003.5 352H1851V351.9Z" fill="#001E40"/>
</svg>
